<?xml version="1.0" encoding="UTF-8"?>
<svg id="Layer_2" data-name="Layer 2" xmlns="http://www.w3.org/2000/svg" viewBox="0 0 80.29 18.33">
  <defs>
    <style>
      .cls-1 {
        opacity: .5;
      }

      .cls-2 {
        fill: #fff;
        stroke-width: 0px;
      }
    </style>
  </defs>
  <g id="Layer_1-2" data-name="Layer 1">
    <g class="cls-1">
      <path class="cls-2" d="M7.24,8.12h-2.53l-2.1-3.01-.54.67v2.34H0V.12h2.06v3.29L4.52.12h2.54l-3.11,3.74,3.28,4.26Z"/>
      <path class="cls-2" d="M15.62,8.12h-2.34l-.4-1.15h-3.16l-.4,1.15h-2.34L10.01.12h2.59l3.02,8ZM12.32,5.17l-1.02-3.01-1.02,3.01h2.04Z"/>
      <path class="cls-2" d="M21.49,8.12h-5.28V.12h2.06v6.2h3.22v1.8Z"/>
      <path class="cls-2" d="M30.34,8.12h-2.34l-.4-1.15h-3.16l-.4,1.15h-2.34L24.72.12h2.59l3.02,8ZM27.04,5.17l-1.02-3.01-1.02,3.01h2.04Z"/>
      <path class="cls-2" d="M32.99,8.12h-2.06V.12h2.06v8Z"/>
      <path class="cls-2" d="M37.4,8.27c-1.48,0-2.66-.42-3.55-1.27l1.09-1.55c.7.7,1.56,1.06,2.56,1.06.35,0,.63-.06.83-.19s.31-.28.31-.47c0-.17-.11-.31-.34-.41-.22-.11-.5-.19-.84-.24-.34-.05-.7-.14-1.09-.25-.39-.12-.76-.25-1.09-.41-.34-.16-.62-.41-.84-.75s-.34-.76-.34-1.24c0-.7.29-1.3.86-1.8s1.35-.74,2.33-.74c1.3,0,2.39.37,3.25,1.12l-1.13,1.48c-.67-.55-1.45-.83-2.34-.83-.58,0-.86.19-.86.58,0,.15.11.28.34.39.22.11.5.19.84.25.34.06.7.14,1.09.26.39.12.75.25,1.09.41s.62.41.84.74c.22.34.34.74.34,1.2,0,.82-.29,1.47-.88,1.95s-1.4.73-2.46.73Z"/>
      <path class="cls-2" d="M47.57,8.12h-5.87V.12h5.87v1.8h-3.8v1.25h3.72v1.8h-3.72v1.36h3.8v1.8Z"/>
      <path class="cls-2" d="M54.05,8.12h-5.28V.12h2.06v6.2h3.22v1.8Z"/>
      <path class="cls-2" d="M58.79,8.12h-2.59L53.18.12h2.34l1.97,5.77L59.47.12h2.34l-3.02,8Z"/>
      <path class="cls-2" d="M69.65,8.12h-2.34l-.4-1.15h-3.16l-.4,1.15h-2.34L64.03.12h2.59l3.02,8ZM66.35,5.17l-1.02-3.01-1.02,3.01h2.04Z"/>
      <path class="cls-2" d="M77.67,8.12h-1.99l-3.38-4.63v4.63h-2.06V.12h2.12l3.24,4.4V.12h2.08v8Z"/>
    </g>
    <g class="cls-1">
      <path class="cls-2" d="M3.6,18.17H.06v-8.42h3.53c1.35,0,2.44.38,3.29,1.14.85.76,1.27,1.78,1.27,3.07s-.42,2.31-1.27,3.07c-.85.76-1.94,1.14-3.27,1.14ZM3.59,16.28c.72,0,1.28-.22,1.7-.67.42-.45.63-1,.63-1.65,0-.68-.2-1.24-.61-1.67-.4-.43-.98-.64-1.72-.64h-1.38v4.63h1.36Z"/>
      <path class="cls-2" d="M17.07,18.17h-2.17v-3.38h-3.5v3.38h-2.17v-8.42h2.17v3.14h3.5v-3.14h2.17v8.42Z"/>
      <path class="cls-2" d="M26.76,18.17h-2.46l-.42-1.21h-3.32l-.42,1.21h-2.46l3.17-8.42h2.73l3.18,8.42ZM23.29,15.07l-1.07-3.17-1.07,3.17h2.15Z"/>
      <path class="cls-2" d="M34.56,18.17h-2.49l-1.41-2.83h-1.11v2.83h-2.17v-8.42h4.22c.91,0,1.62.26,2.15.79.52.53.78,1.2.78,2.01,0,.67-.17,1.22-.5,1.65-.33.42-.73.72-1.18.88l1.72,3.09ZM31.27,13.45c.29,0,.54-.08.74-.24.2-.16.3-.38.3-.67s-.1-.5-.3-.66c-.2-.16-.45-.24-.74-.24h-1.72v1.81h1.72Z"/>
      <path class="cls-2" d="M45.28,18.17h-2.17v-5.48l-2.13,5.48h-.96l-2.12-5.48v5.48h-2.17v-8.42h3.02l1.75,4.57,1.77-4.57h3.02v8.42Z"/>
      <path class="cls-2" d="M54.97,18.17h-2.46l-.42-1.21h-3.32l-.42,1.21h-2.46l3.17-8.42h2.73l3.18,8.42ZM51.5,15.07l-1.07-3.17-1.07,3.17h2.15Z"/>
      <path class="cls-2" d="M62.77,18.17h-2.49l-1.41-2.83h-1.11v2.83h-2.17v-8.42h4.22c.91,0,1.62.26,2.15.79.52.53.78,1.2.78,2.01,0,.67-.17,1.22-.5,1.65-.33.42-.73.72-1.18.88l1.72,3.09ZM59.47,13.45c.29,0,.54-.08.74-.24.2-.16.3-.38.3-.67s-.1-.5-.3-.66c-.2-.16-.45-.24-.74-.24h-1.72v1.81h1.72Z"/>
      <path class="cls-2" d="M72.11,18.17h-2.46l-.42-1.21h-3.32l-.42,1.21h-2.46l3.17-8.42h2.73l3.18,8.42ZM68.64,15.07l-1.07-3.17-1.07,3.17h2.15Z"/>
      <path class="cls-2" d="M74.63,18.33c-.97,0-1.74-.25-2.31-.76l.91-1.65c.4.33.8.49,1.21.49.34,0,.62-.1.82-.31s.3-.49.3-.84v-5.5h2.17v5.53c0,1.01-.28,1.77-.83,2.28-.56.51-1.31.76-2.27.76Z"/>
    </g>
    <g class="cls-1">
      <path class="cls-2" d="M78.07.69V.22h2.19v1.04c0,.23-.07.42-.2.55-.13.13-.3.2-.5.2s-.37-.07-.5-.2c-.14-.13-.2-.32-.2-.55v-.57h-.78ZM79.26,1.2c0,.1.03.17.08.24.05.06.12.09.21.09s.16-.03.21-.09c.05-.06.08-.14.08-.24v-.5h-.59v.5Z"/>
      <path class="cls-2" d="M78.03,3.36c0-.34.11-.61.32-.83.21-.22.48-.33.81-.33s.6.11.81.33c.21.22.32.5.32.83s-.11.62-.32.84c-.21.22-.48.33-.81.33s-.6-.11-.81-.33c-.21-.22-.32-.5-.32-.84ZM78.65,2.87c-.14.12-.2.29-.2.49s.07.37.2.49c.14.12.31.19.52.19s.38-.06.52-.19c.14-.12.2-.29.2-.49s-.07-.37-.2-.49c-.14-.12-.31-.19-.52-.19s-.38.06-.52.19Z"/>
      <path class="cls-2" d="M78.07,6.66v-.54l.78-.44v-.35h-.78v-.47h2.19v1.04c0,.23-.07.41-.2.55-.13.13-.3.2-.51.2-.18,0-.32-.05-.44-.14-.11-.09-.18-.21-.21-.35l-.83.5ZM79.26,5.83c0,.1.03.18.08.24.05.06.12.09.21.09s.16-.03.21-.09.08-.14.08-.24v-.5h-.59v.5Z"/>
      <path class="cls-2" d="M78.07,7.96v-.48h1.78v-.65h.41v1.78h-.41v-.65h-1.78Z"/>
      <path class="cls-2" d="M78.07,9.38v-.47h2.19v1.58h-.41v-1.1h-.46v1.08h-.41v-1.08h-.91Z"/>
      <path class="cls-2" d="M78.03,11.87c0-.34.11-.61.32-.83.21-.22.48-.33.81-.33s.6.11.81.33c.21.22.32.5.32.83s-.11.62-.32.84c-.21.22-.48.33-.81.33s-.6-.11-.81-.33c-.21-.22-.32-.5-.32-.84ZM78.65,11.38c-.14.12-.2.29-.2.49s.07.37.2.49c.14.12.31.19.52.19s.38-.06.52-.19c.14-.12.2-.29.2-.49s-.07-.37-.2-.49c-.14-.12-.31-.19-.52-.19s-.38.06-.52.19Z"/>
      <path class="cls-2" d="M78.07,14.79v-1.42h2.19v.47h-1.78v.94h-.41Z"/>
      <path class="cls-2" d="M78.07,15.59v-.47h2.19v.47h-2.19Z"/>
      <path class="cls-2" d="M78.03,17.08c0-.34.11-.61.32-.83.21-.22.48-.33.81-.33s.6.11.81.33c.21.22.32.5.32.83s-.11.62-.32.84c-.21.22-.48.33-.81.33s-.6-.11-.81-.33c-.21-.22-.32-.5-.32-.84ZM78.65,16.6c-.14.12-.2.29-.2.49s.07.37.2.49c.14.12.31.19.52.19s.38-.06.52-.19c.14-.12.2-.29.2-.49s-.07-.37-.2-.49c-.14-.12-.31-.19-.52-.19s-.38.06-.52.19Z"/>
    </g>
  </g>
</svg>